# Blender v2.81 (sub 16) OBJ File: ''
# www.blender.org
o Star
v 0.000000 -0.250000 0.000000
v 0.000000 0.250000 0.000000
v 0.500000 -0.250000 0.000000
v 0.500000 0.250000 0.000000
v 0.809017 -0.250000 0.587785
v 0.809017 0.250000 0.587785
v 0.154509 -0.250000 0.475528
v 0.154509 0.250000 0.475528
v -0.309017 -0.250000 0.951057
v -0.309017 0.250000 0.951057
v -0.404509 -0.250000 0.293893
v -0.404509 0.250000 0.293893
v -1.000000 -0.250000 0.000000
v -1.000000 0.250000 0.000000
v -0.404509 -0.250000 -0.293893
v -0.404509 0.250000 -0.293893
v -0.309017 -0.250000 -0.951057
v -0.309017 0.250000 -0.951057
v 0.154509 -0.250000 -0.475528
v 0.154509 0.250000 -0.475528
v 0.809017 -0.250000 -0.587786
v 0.809017 0.250000 -0.587786
vn 0.0000 -1.0000 0.0000
vn 0.8851 0.0000 0.4653
vn 0.8851 0.0000 -0.4653
vn -0.1690 0.0000 0.9856
vn 0.7161 0.0000 0.6980
vn -0.9896 0.0000 0.1438
vn -0.4426 0.0000 0.8967
vn -0.4426 0.0000 -0.8967
vn -0.9896 0.0000 -0.1438
vn 0.7161 0.0000 -0.6980
vn -0.1690 0.0000 -0.9856
vn 0.0000 1.0000 0.0000
s off
f 3//1 1//1 21//1
f 1//1 3//1 5//1
f 1//1 5//1 7//1
f 1//1 7//1 9//1
f 1//1 9//1 11//1
f 1//1 11//1 13//1
f 1//1 13//1 15//1
f 1//1 15//1 17//1
f 1//1 17//1 19//1
f 1//1 19//1 21//1
f 3//2 22//2 4//2
f 4//3 5//3 3//3
f 6//4 7//4 5//4
f 8//5 9//5 7//5
f 10//6 11//6 9//6
f 12//7 13//7 11//7
f 14//8 15//8 13//8
f 16//9 17//9 15//9
f 18//10 19//10 17//10
f 20//11 21//11 19//11
f 2//12 4//12 22//12
f 4//12 2//12 6//12
f 6//12 2//12 8//12
f 8//12 2//12 10//12
f 10//12 2//12 12//12
f 12//12 2//12 14//12
f 14//12 2//12 16//12
f 16//12 2//12 18//12
f 18//12 2//12 20//12
f 20//12 2//12 22//12
f 3//2 21//2 22//2
f 4//3 6//3 5//3
f 6//4 8//4 7//4
f 8//5 10//5 9//5
f 10//6 12//6 11//6
f 12//7 14//7 13//7
f 14//8 16//8 15//8
f 16//9 18//9 17//9
f 18//10 20//10 19//10
f 20//11 22//11 21//11
