v -1.000000 1.000000 -0.000000
v 0.500000 1.000000 -0.866026
v 0.500000 1.000000 0.866026
v -0.450000 -1.000000 0.779423
v 0.900000 -1.000000 0.000000
v -0.450000 -1.000000 -0.779423
v -1.000000 0.900000 -0.000000
v 0.500000 0.900000 0.866026
v 0.500000 0.900000 -0.866026
v -0.900000 0.800000 -0.000000
v -0.900000 0.900000 -0.000000
v 0.450000 0.900000 0.779423
v 0.450000 0.800000 0.779423
v 0.450000 0.900000 -0.779423
v 0.450000 0.800000 -0.779423
v -0.800000 0.700000 -0.000000
v -0.800000 0.800000 -0.000000
v 0.400000 0.800000 0.692820
v 0.400000 0.700000 0.692820
v 0.400000 0.800000 -0.692820
v 0.400000 0.700000 -0.692820
v -0.700000 0.600000 -0.000000
v -0.700000 0.700000 -0.000000
v 0.350000 0.700000 0.606218
v 0.350000 0.600000 0.606218
v 0.350000 0.700000 -0.606218
v 0.350000 0.600000 -0.606218
v -0.600000 0.500000 -0.000000
v -0.600000 0.600000 -0.000000
v 0.300000 0.600000 0.519615
v 0.300000 0.500000 0.519615
v 0.300000 0.600000 -0.519615
v 0.300000 0.500000 -0.519615
v -0.500000 0.400000 -0.000000
v -0.500000 0.500000 -0.000000
v 0.250000 0.500000 0.433013
v 0.250000 0.400000 0.433013
v 0.250000 0.500000 -0.433013
v 0.250000 0.400000 -0.433013
v -0.400000 0.300000 -0.000000
v -0.400000 0.400000 -0.000000
v 0.200000 0.400000 0.346410
v 0.200000 0.300000 0.346410
v 0.200000 0.400000 -0.346410
v 0.200000 0.300000 -0.346410
v -0.300000 0.200000 -0.000000
v -0.300000 0.300000 -0.000000
v 0.150000 0.300000 0.259808
v 0.150000 0.200000 0.259808
v 0.150000 0.300000 -0.259808
v 0.150000 0.200000 -0.259808
v -0.200000 0.100000 -0.000000
v -0.200000 0.200000 -0.000000
v 0.100000 0.200000 0.173205
v 0.100000 0.100000 0.173205
v 0.100000 0.200000 -0.173205
v 0.100000 0.100000 -0.173205
v -0.100000 0.000000 0.000000
v -0.100000 0.100000 -0.000000
v 0.050000 0.100000 0.086603
v 0.050000 0.000000 0.086603
v 0.050000 0.100000 -0.086603
v 0.000000 -0.100000 0.000000
v 0.000000 0.000000 0.000000
v 0.100000 -0.200000 0.000000
v 0.100000 -0.100000 0.000000
v -0.050000 -0.100000 -0.086603
v -0.050000 -0.200000 -0.086603
v -0.050000 -0.100000 0.086603
v -0.050000 -0.200000 0.086603
v 0.200000 -0.300000 0.000000
v 0.200000 -0.200000 0.000000
v -0.100000 -0.200000 -0.173205
v -0.100000 -0.300000 -0.173205
v -0.100000 -0.200000 0.173205
v -0.100000 -0.300000 0.173205
v 0.300000 -0.400000 0.000000
v 0.300000 -0.300000 0.000000
v -0.150000 -0.300000 -0.259808
v -0.150000 -0.400000 -0.259808
v -0.150000 -0.300000 0.259808
v -0.150000 -0.400000 0.259808
v 0.400000 -0.500000 0.000000
v 0.400000 -0.400000 0.000000
v -0.200000 -0.400000 -0.346410
v -0.200000 -0.500000 -0.346410
v -0.200000 -0.400000 0.346410
v -0.200000 -0.500000 0.346410
v 0.500000 -0.600000 0.000000
v 0.500000 -0.500000 0.000000
v -0.250000 -0.500000 -0.433013
v -0.250000 -0.600000 -0.433013
v -0.250000 -0.500000 0.433013
v -0.250000 -0.600000 0.433013
v 0.600000 -0.700000 0.000000
v 0.600000 -0.600000 0.000000
v -0.300000 -0.600000 -0.519615
v -0.300000 -0.700000 -0.519615
v -0.300000 -0.600000 0.519615
v -0.300000 -0.700000 0.519615
v 0.700000 -0.800000 0.000000
v 0.700000 -0.700000 0.000000
v -0.350000 -0.700000 -0.606218
v -0.350000 -0.800000 -0.606218
v -0.350000 -0.700000 0.606218
v -0.350000 -0.800000 0.606218
v 0.800000 -0.900000 0.000000
v 0.800000 -0.800000 0.000000
v -0.400000 -0.800000 -0.692820
v -0.400000 -0.900000 -0.692820
v -0.400000 -0.800000 0.692820
v -0.400000 -0.900000 0.692820
v 0.900000 -0.900000 0.000000
v -0.450000 -0.900000 -0.779423
v -0.450000 -0.900000 0.779423
v 0.050000 -0.000000 -0.086603
vn 0.000000 -1.000000 0.000000
vn 0.000000 1.000000 0.000000
vn 0.500000 0.000000 -0.866025
vn -1.000000 0.000000 0.000000
vn 0.500000 -0.000000 0.866025
vn 0.500000 0.000000 -0.866025
vn 0.500000 -0.000000 0.866025
vn 0.500000 0.000000 -0.866025
vn 0.500000 -0.000000 0.866025
vn 0.500000 0.000000 -0.866026
vn 0.500000 -0.000000 0.866026
vn 0.500000 0.000000 -0.866026
vn 0.500000 -0.000000 0.866026
vn 0.500001 0.000000 -0.866025
vn 0.500001 -0.000000 0.866025
vn 0.500000 0.000000 -0.866026
vn 0.500000 -0.000000 0.866026
vn 0.500002 -0.000000 -0.866024
vn 0.500002 0.000000 0.866024
vn NaN NaN NaN
vn NaN NaN NaN
vn NaN NaN NaN
vn -0.500002 0.000000 0.866024
vn 1.000000 0.000000 0.000000
vn -0.500002 0.000000 -0.866024
vn -0.500000 0.000000 0.866026
vn -0.500000 0.000000 -0.866026
vn -0.500001 0.000000 0.866025
vn -0.500001 0.000000 -0.866025
vn -0.500000 0.000000 0.866026
vn -0.500000 0.000000 -0.866026
vn -0.500000 0.000000 0.866025
vn -0.500000 0.000000 -0.866025
vn -0.500000 0.000000 0.866026
vn -0.500000 0.000000 -0.866026
vn -0.500000 0.000000 0.866025
vn -0.500000 0.000000 -0.866025
vn -0.500000 0.000000 0.866025
vn -0.500000 0.000000 -0.866025
vn NaN NaN NaN
vn NaN NaN NaN
vn NaN NaN NaN
vn NaN NaN NaN
vn NaN NaN NaN
vn NaN NaN NaN
vn NaN NaN NaN
vn NaN NaN NaN
vn NaN NaN NaN
f 1//1 2//1 3//1
f 4//2 5//2 6//2
f 7//3 1//3 3//3
f 8//4 3//4 2//4
f 9//5 2//5 1//5
f 10//6 11//6 12//6
f 13//4 12//4 14//4
f 15//7 14//7 11//7
f 16//8 17//8 18//8
f 19//4 18//4 20//4
f 21//9 20//9 17//9
f 22//6 23//6 24//6
f 25//4 24//4 26//4
f 27//7 26//7 23//7
f 28//10 29//10 30//10
f 31//4 30//4 32//4
f 33//11 32//11 29//11
f 34//3 35//3 36//3
f 37//4 36//4 38//4
f 39//5 38//5 35//5
f 40//12 41//12 42//12
f 43//4 42//4 44//4
f 45//13 44//13 41//13
f 46//14 47//14 48//14
f 49//4 48//4 50//4
f 51//15 50//15 47//15
f 52//16 53//16 54//16
f 55//4 54//4 56//4
f 57//17 56//17 53//17
f 58//18 59//18 60//18
f 61//4 60//4 62//4
f 62//19 59//19 58//19
f 63//20 64//20 64//20
f 63//21 64//21 64//21
f 63//22 64//22 64//22
f 65//23 66//23 67//23
f 68//24 67//24 69//24
f 70//25 69//25 66//25
f 71//26 72//26 73//26
f 74//24 73//24 75//24
f 76//27 75//27 72//27
f 77//28 78//28 79//28
f 80//24 79//24 81//24
f 82//29 81//29 78//29
f 83//30 84//30 85//30
f 86//24 85//24 87//24
f 88//31 87//31 84//31
f 89//32 90//32 91//32
f 92//24 91//24 93//24
f 94//33 93//33 90//33
f 95//34 96//34 97//34
f 98//24 97//24 99//24
f 100//35 99//35 96//35
f 101//36 102//36 103//36
f 104//24 103//24 105//24
f 106//37 105//37 102//37
f 107//34 108//34 109//34
f 110//24 109//24 111//24
f 112//35 111//35 108//35
f 5//38 113//38 114//38
f 6//24 114//24 115//24
f 4//39 115//39 113//39
f 11//2 7//2 8//2
f 12//2 8//2 9//2
f 14//2 9//2 7//2
f 17//2 10//2 13//2
f 18//2 13//2 15//2
f 20//2 15//2 10//2
f 23//2 16//2 19//2
f 24//2 19//2 21//2
f 21//2 16//2 23//2
f 22//2 25//2 30//2
f 30//2 25//2 27//2
f 32//2 27//2 22//2
f 35//2 28//2 31//2
f 36//2 31//2 33//2
f 38//2 33//2 28//2
f 34//2 37//2 42//2
f 42//2 37//2 39//2
f 44//2 39//2 34//2
f 47//2 40//2 43//2
f 48//2 43//2 45//2
f 45//2 40//2 47//2
f 46//2 49//2 54//2
f 54//2 49//2 51//2
f 51//2 46//2 53//2
f 59//2 52//2 55//2
f 60//2 55//2 57//2
f 62//2 57//2 52//2
f 58//2 61//2 64//2
f 61//2 116//2 64//2
f 116//2 58//2 64//2
f 63//40 63//40 67//40
f 67//41 63//41 63//41
f 69//42 63//42 63//42
f 72//1 65//1 68//1
f 68//1 70//1 75//1
f 75//1 70//1 65//1
f 71//1 74//1 79//1
f 79//1 74//1 76//1
f 81//1 76//1 71//1
f 84//1 77//1 80//1
f 85//1 80//1 82//1
f 82//1 77//1 84//1
f 90//1 83//1 86//1
f 86//1 88//1 93//1
f 93//1 88//1 83//1
f 89//1 92//1 97//1
f 97//1 92//1 94//1
f 99//1 94//1 89//1
f 102//1 95//1 98//1
f 103//1 98//1 100//1
f 100//1 95//1 102//1
f 101//1 104//1 109//1
f 109//1 104//1 106//1
f 111//1 106//1 101//1
f 107//1 110//1 114//1
f 114//1 110//1 112//1
f 112//1 107//1 113//1
f 7//3 3//3 8//3
f 8//4 2//4 9//4
f 9//5 1//5 7//5
f 10//6 12//6 13//6
f 13//4 14//4 15//4
f 15//7 11//7 10//7
f 16//8 18//8 19//8
f 19//4 20//4 21//4
f 21//9 17//9 16//9
f 22//6 24//6 25//6
f 25//4 26//4 27//4
f 27//7 23//7 22//7
f 28//10 30//10 31//10
f 31//4 32//4 33//4
f 33//11 29//11 28//11
f 34//3 36//3 37//3
f 37//4 38//4 39//4
f 39//5 35//5 34//5
f 40//12 42//12 43//12
f 43//4 44//4 45//4
f 45//13 41//13 40//13
f 46//14 48//14 49//14
f 49//4 50//4 51//4
f 51//15 47//15 46//15
f 52//16 54//16 55//16
f 55//4 56//4 57//4
f 57//17 53//17 52//17
f 58//18 60//18 61//18
f 61//4 62//4 116//4
f 62//19 58//19 116//19
f 63//43 64//43 63//43
f 63//44 64//44 63//44
f 63//45 64//45 63//45
f 65//23 67//23 68//23
f 68//24 69//24 70//24
f 70//25 66//25 65//25
f 71//26 73//26 74//26
f 74//24 75//24 76//24
f 76//27 72//27 71//27
f 77//28 79//28 80//28
f 80//24 81//24 82//24
f 82//29 78//29 77//29
f 83//30 85//30 86//30
f 86//24 87//24 88//24
f 88//31 84//31 83//31
f 89//32 91//32 92//32
f 92//24 93//24 94//24
f 94//33 90//33 89//33
f 95//34 97//34 98//34
f 98//24 99//24 100//24
f 100//35 96//35 95//35
f 101//36 103//36 104//36
f 104//24 105//24 106//24
f 106//37 102//37 101//37
f 107//34 109//34 110//34
f 110//24 111//24 112//24
f 112//35 108//35 107//35
f 5//38 114//38 6//38
f 6//24 115//24 4//24
f 4//39 113//39 5//39
f 11//2 8//2 12//2
f 12//2 9//2 14//2
f 14//2 7//2 11//2
f 17//2 13//2 18//2
f 18//2 15//2 20//2
f 20//2 10//2 17//2
f 23//2 19//2 24//2
f 24//2 21//2 26//2
f 21//2 23//2 26//2
f 22//2 30//2 29//2
f 30//2 27//2 32//2
f 32//2 22//2 29//2
f 35//2 31//2 36//2
f 36//2 33//2 38//2
f 38//2 28//2 35//2
f 34//2 42//2 41//2
f 42//2 39//2 44//2
f 44//2 34//2 41//2
f 47//2 43//2 48//2
f 48//2 45//2 50//2
f 45//2 47//2 50//2
f 46//2 54//2 53//2
f 54//2 51//2 56//2
f 51//2 53//2 56//2
f 59//2 55//2 60//2
f 60//2 57//2 62//2
f 62//2 52//2 59//2
f 58//46 64//46 64//46
f 61//47 64//47 64//47
f 116//48 64//48 64//48
f 63//1 67//1 66//1
f 67//1 63//1 69//1
f 69//1 63//1 66//1
f 72//1 68//1 73//1
f 68//1 75//1 73//1
f 75//1 65//1 72//1
f 71//1 79//1 78//1
f 79//1 76//1 81//1
f 81//1 71//1 78//1
f 84//1 80//1 85//1
f 85//1 82//1 87//1
f 82//1 84//1 87//1
f 90//1 86//1 91//1
f 86//1 93//1 91//1
f 93//1 83//1 90//1
f 89//1 97//1 96//1
f 97//1 94//1 99//1
f 99//1 89//1 96//1
f 102//1 98//1 103//1
f 103//1 100//1 105//1
f 100//1 102//1 105//1
f 101//1 109//1 108//1
f 109//1 106//1 111//1
f 111//1 101//1 108//1
f 107//1 114//1 113//1
f 114//1 112//1 115//1
f 112//1 113//1 115//1
